Coordinates
version=1
nRows=54
nColumns=12
inDegrees=yes

Units are S.I. units (second, meters, Newtons, ...)
Angles are in degrees

endheader
time	SC_y	SC_z	SC_x	AC_y	AC_z	AC_x	GH_y	GH_z	GH_yy	EL_x	PS_y
       0.0              -42.51          34.98          82.47          66.32          7.799          10.95          142.1          14.32        -0.5154          52.52          40.07
   0.02756              -42.51          34.98          82.47          66.32          7.799          10.95          142.0          14.33        -0.5356          52.52          40.08
   0.05513              -42.51          34.98          82.47          66.31            7.8          10.95          142.0          14.34        -0.5572          52.51           40.1
   0.08269              -42.51          34.97          82.46          66.31            7.8          10.95          142.0          14.35        -0.5801          52.51          40.11
    0.1103              -42.51          34.97          82.46           66.3            7.8          10.94          141.9          14.36        -0.6045           52.5          40.13
    0.1378              -42.51          34.97          82.45          66.29            7.8          10.94          141.9          14.37        -0.6305           52.5          40.15
    0.1654              -42.51          34.97          82.45          66.29            7.8          10.94          141.8          14.38        -0.6583          52.49          40.17
    0.1929              -42.51          34.96          82.45          66.28            7.8          10.93          141.8          14.39         -0.688          52.48          40.19
    0.2205              -42.51          34.96          82.44          66.27            7.8          10.93          141.7          14.41        -0.7198          52.47          40.21
    0.2481              -42.51          34.96          82.43          66.26            7.8          10.93          141.7          14.42        -0.7539          52.47          40.23
    0.2756              -42.51          34.95          82.43          66.25          7.801          10.92          141.6          14.44        -0.7906          52.46          40.26
    0.3032              -42.51          34.95          82.42          66.24          7.801          10.92          141.6          14.45          -0.83          52.45          40.28
    0.3308              -42.51          34.95          82.42          66.23          7.801          10.91          141.5          14.47        -0.8725          52.44          40.31
    0.3583              -42.51          34.94          82.41          66.22          7.801          10.91          141.4          14.49        -0.9184          52.43          40.34
    0.3859              -42.51          34.94           82.4          66.21          7.801           10.9          141.3          14.51        -0.9681          52.41          40.38
    0.4134              -42.51          34.93          82.39          66.19          7.802           10.9          141.3          14.53         -1.022           52.4          40.41
     0.441              -42.52          34.93          82.38          66.18          7.802          10.89          141.2          14.56         -1.081          52.39          40.45
    0.4686              -42.52          34.92          82.37          66.16          7.802          10.88          141.1          14.59         -1.144          52.37           40.5
    0.4961              -42.52          34.91          82.36          66.14          7.802          10.87          140.9          14.62         -1.214          52.35          40.54
    0.5237              -42.52          34.91          82.35          66.12          7.803          10.86          140.8          14.65          -1.29          52.33           40.6
    0.5513              -42.52           34.9          82.33           66.1          7.803          10.85          140.7          14.68         -1.374          52.31          40.65
    0.5788              -42.52          34.89          82.32          66.08          7.804          10.84          140.5          14.72         -1.466          52.29          40.71
    0.6064              -42.53          34.88           82.3          66.05          7.804          10.83          140.4          14.77         -1.568          52.27          40.78
    0.6339              -42.53          34.87          82.28          66.02          7.804          10.82          140.2          14.81         -1.681          52.24          40.86
    0.6615              -42.53          34.86          82.26          65.99          7.805           10.8          140.0          14.87         -1.806          52.21          40.95
    0.6891              -42.53          34.84          82.24          65.96          7.806          10.79          139.7          14.93         -1.946          52.17          41.04
    0.7166              -42.54          34.83          82.21          65.92          7.806          10.77          139.5          14.99         -2.103          52.13          41.15
    0.7442              -42.54          34.81          82.19          65.87          7.807          10.75          139.2          15.07         -2.279          52.09          41.27
    0.7718              -42.54          34.79          82.15          65.82          7.808          10.73          138.9          15.15         -2.479          52.04           41.4
    0.7993              -42.55          34.77          82.12          65.76          7.809           10.7          138.5          15.25         -2.705          51.99          41.56
    0.8269              -42.55          34.75          82.07           65.7           7.81          10.67          138.1          15.36         -2.963          51.92          41.73
    0.8545              -42.56          34.72          82.03          65.62          7.811          10.64          137.6          15.48          -3.26          51.85          41.93
     0.882              -42.56          34.69          81.97          65.53          7.813           10.6          137.1          15.63         -3.602          51.77          42.16
    0.9096              -42.57          34.65           81.9          65.43          7.815          10.55          136.4           15.8         -3.999          51.67          42.43
    0.9371              -42.58           34.6          81.83          65.31          7.817           10.5          135.6           16.0         -4.465          51.56          42.75
    0.9647              -42.59          34.55          81.74          65.17          7.819          10.43          134.8          16.23         -5.013          51.42          43.12
    0.9923               -42.6          34.49          81.63          65.01          7.822          10.36          133.7          16.51         -5.665          51.26          43.57
      1.02              -42.62          34.42          81.51          64.81          7.825          10.26          132.4          16.84         -6.446          51.07           44.1
     1.047              -42.63          34.33          81.35          64.56          7.829          10.15          130.9          17.24         -7.391          50.84          44.74
     1.075              -42.66          34.22          81.16          64.27          7.834          10.02          129.0          17.73         -8.546          50.56          45.52
     1.103              -42.68          34.08          80.93          63.91           7.84          9.855          126.7          18.33         -9.971          50.21          46.49
      1.13              -42.72          33.91          80.64          63.45          7.848          9.649          123.8          19.09         -11.75          49.77           47.7
     1.158              -42.76           33.7          80.27          62.88          7.858          9.389          120.1          20.04         -13.99          49.22          49.21
     1.185              -42.81          33.43          79.81          62.15           7.87          9.058          115.5          21.25         -16.83          48.53          51.15
     1.213              -42.88          33.09          79.22          61.22          7.886          8.635          109.6          22.79         -20.47          47.63          53.62
      1.24              -42.97          32.64          78.45          60.03          7.906          8.091          102.0          24.78         -25.15          46.49          56.79
     1.268              -43.08          32.08          77.48           58.5          7.932          7.398          92.26          27.31         -31.12          45.02          60.85
     1.295              -43.22          31.36          76.25          56.58          7.965          6.525          80.04           30.5         -38.62          43.18          65.94
     1.323              -43.39          30.49          74.76          54.24          8.004          5.462          65.14          34.38         -47.77          40.94          72.15
     1.351              -43.59          29.49          73.03          51.53           8.05           4.23          47.88          38.88         -58.38          38.34          79.35
     1.378               -43.8           28.4          71.15           48.6            8.1          2.895          29.19          43.76         -69.86          35.53          87.15
     1.406              -44.01          27.31          69.28          45.66           8.15          1.561           10.5          48.63         -81.34          32.72          94.94
     1.433              -44.21           26.3          67.55          42.95          8.196         0.3287         -6.767          53.14         -91.94          30.12          102.1
     1.461              -44.38          25.43          66.06          40.61          8.236        -0.7344         -21.66          57.02         -101.1          27.88          108.4
